# File created by Blade
# Date/Time:  Wed Apr 08 17:00:17 2015
# Frame Rate: 120.000 fps
#------------------------------------------------------
:FULLY-SPECIFIED
:DEGREES
2389
root 1.984095 35.935908 2.577120 -126.459228 -88.086461 119.690993
Spine 12.274252 1.576260 -4.172002
Head 3.876277 5.248852 2.969056
LeftShoulder -5.416710 5.806503 32.320899
LeftArm 8.964951 -39.710726 -35.570394
LeftForeArm 26.061310 -0.000000 1.359715
LeftHand -12.282637 -0.000000 -10.024381
LeftHandThumb1 -26.253704 0.000000 33.147579
RightShoulder -23.367997 -39.942908 -12.812498
RightArm 56.573714 55.470858 61.135794
RightForeArm 1.782449 -0.000000 -1.769482
RightHand -2.190872 -0.000000 15.088084
RightHandThumb1 -24.326973 -0.000000 -32.862282
LeftUpLeg 12.206492 12.853036 6.265867
LeftLeg 6.026385 -0.000000 -0.000000
LeftFoot -11.777881 4.544769 -11.796813
LeftToeBase 8.884130 -0.000000 -0.000000
RightUpLeg 12.189613 -10.106352 -11.944471
RightLeg 2.057027 -0.000000 -0.000000
RightFoot -8.830601 5.775538 19.017054
RightToeBase 14.998027 -0.000000 -0.000000
2390
root 1.980783 35.935326 2.576023 -126.520534 -88.083362 119.753564
Spine 12.266938 1.582349 -4.165899
Head 3.877801 5.245624 2.974798
LeftShoulder -5.412259 5.789210 32.328592
LeftArm 8.914924 -39.712525 -35.552450
LeftForeArm 26.110320 -0.000000 1.356087
LeftHand -12.287917 -0.000000 -9.939568
LeftHandThumb1 -26.253704 0.000000 33.147579
RightShoulder -23.353023 -39.927946 -12.828171
RightArm 56.546686 55.485087 61.133104
RightForeArm 1.739183 0.000000 -1.762977
RightHand -2.200954 -0.000000 15.073210
RightHandThumb1 -24.326973 -0.000000 -32.862282
LeftUpLeg 12.204305 12.847117 6.265656
LeftLeg 6.040921 -0.000000 -0.000000
LeftFoot -11.789138 4.550184 -11.804969
LeftToeBase 8.860433 -0.000000 -0.000000
RightUpLeg 12.188440 -10.129944 -11.950681
RightLeg 2.068150 -0.000000 -0.000000
RightFoot -8.837284 5.797313 19.005372
RightToeBase 15.002119 -0.000000 -0.000000
2391
root 1.977041 35.934913 2.575645 -126.421193 -88.078935 119.655565
Spine 12.257270 1.588090 -4.159610
Head 3.886276 5.234981 2.979169
LeftShoulder -5.411586 5.788856 32.315365
LeftArm 8.890477 -39.710989 -35.532697
LeftForeArm 26.130936 -0.000000 1.359884
LeftHand -12.342511 -0.000000 -9.898874
LeftHandThumb1 -26.253704 0.000000 33.147579
RightShoulder -23.362285 -39.934982 -12.830547
RightArm 56.544872 55.480840 61.135258
RightForeArm 1.681242 0.000000 -1.758116
RightHand -2.243007 -0.000000 15.044351
RightHandThumb1 -24.326973 -0.000000 -32.862282
LeftUpLeg 12.209547 12.841651 6.258405
LeftLeg 6.037832 -0.000000 -0.000000
LeftFoot -11.792228 4.561316 -11.792384
LeftToeBase 8.867735 -0.000000 -0.000000
RightUpLeg 12.195176 -10.115179 -11.952853
RightLeg 2.063593 -0.000000 -0.000000
RightFoot -8.845803 5.786389 19.007330
RightToeBase 15.008856 -0.000000 -0.000000
2392
root 1.972978 35.934532 2.575227 -126.509119 -88.077247 119.740849
Spine 12.256547 1.587616 -4.146082
Head 3.884559 5.230587 2.987869
LeftShoulder -5.427309 5.811420 32.288557
LeftArm 8.878383 -39.708972 -35.511409
LeftForeArm 26.099714 -0.000000 1.376801
LeftHand -12.362448 -0.000000 -9.871292
LeftHandThumb1 -26.253704 0.000000 33.147579
RightShoulder -23.359992 -39.940507 -12.831152
RightArm 56.527024 55.490987 61.116925
RightForeArm 1.608455 0.000000 -1.736706
RightHand -2.247821 0.000000 15.075011
RightHandThumb1 -24.326973 -0.000000 -32.862282
LeftUpLeg 12.214865 12.848711 6.265209
LeftLeg 6.050424 -0.000000 -0.000000
LeftFoot -11.795209 4.552005 -11.781317
LeftToeBase 8.847415 -0.000000 -0.000000
RightUpLeg 12.203562 -10.129441 -11.958525
RightLeg 2.065655 -0.000000 -0.000000
RightFoot -8.850076 5.811989 19.016577
RightToeBase 15.026607 -0.000000 -0.000000
2393
root 1.968988 35.933915 2.574928 -126.404274 -88.079447 119.629062
Spine 12.258245 1.592026 -4.135749
Head 3.891562 5.221992 3.002264
LeftShoulder -5.421313 5.799335 32.283095
LeftArm 8.837106 -39.712733 -35.493056
LeftForeArm 26.063207 -0.000000 1.407865
LeftHand -12.375961 -0.000000 -9.866220
LeftHandThumb1 -26.253704 0.000000 33.147579
RightShoulder -23.364189 -39.951094 -12.807812
RightArm 56.407747 55.447393 60.926068
RightForeArm 1.663730 -0.000000 -1.788070
RightHand -2.209131 -0.000000 15.010719
RightHandThumb1 -24.326973 -0.000000 -32.862282
LeftUpLeg 12.223893 12.852563 6.267710
LeftLeg 6.057785 -0.000000 -0.000000
LeftFoot -11.809688 4.554098 -11.804778
LeftToeBase 8.863172 -0.000000 -0.000000
RightUpLeg 12.222845 -10.113211 -11.956536
RightLeg 2.056050 -0.000000 -0.000000
RightFoot -8.857750 5.789571 19.023243
RightToeBase 15.010240 -0.000000 -0.000000
2394
root 1.965082 35.933524 2.574665 -126.008478 -88.082212 119.230700
Spine 12.255322 1.593629 -4.126788
Head 3.897884 5.180535 3.003811
LeftShoulder -5.421946 5.807978 32.252216
LeftArm 8.831511 -39.739987 -35.470827
LeftForeArm 26.029703 0.000000 1.424662
LeftHand -12.348712 -0.000000 -9.837722
LeftHandThumb1 -26.253704 0.000000 33.147579
RightShoulder -23.392487 -39.970804 -12.780074
RightArm 56.401830 55.445972 60.886925
RightForeArm 1.621424 0.000000 -1.792344
RightHand -2.190114 -0.000000 15.020713
RightHandThumb1 -24.326973 -0.000000 -32.862282
LeftUpLeg 12.231342 12.850710 6.267294
LeftLeg 6.054449 -0.000000 -0.000000
LeftFoot -11.806929 4.539567 -11.800865
LeftToeBase 8.862152 -0.000000 -0.000000
RightUpLeg 12.236542 -10.140494 -11.967740
RightLeg 2.057448 -0.000000 -0.000000
RightFoot -8.863278 5.803100 19.011537
RightToeBase 14.996101 -0.000000 -0.000000
